<?xml version="1.0" encoding="utf-8"?>
<!-- Generator: Adobe Illustrator 25.4.1, SVG Export Plug-In . SVG Version: 6.00 Build 0)  -->
<svg version="1.1" id="Layer_1" xmlns="http://www.w3.org/2000/svg" xmlns:xlink="http://www.w3.org/1999/xlink" x="0px" y="0px"
	 viewBox="0 0 2000 2000" style="enable-background:new 0 0 2000 2000;" xml:space="preserve">
<style type="text/css">
	.st0{fill:#EE002A;}
	.st1{fill:#FFFFFF;}
	.st2{fill:#231F20;}
	.st3{fill:#C2002F;}
	.st4{display:none;}
	.st5{display:inline;fill:none;stroke:#00BDFF;stroke-width:3;stroke-miterlimit:10;stroke-dasharray:12;}
	.st6{display:inline;fill:none;stroke:#00BDFF;stroke-width:3;stroke-miterlimit:10;}
	.st7{display:inline;fill:none;stroke:#00BDFF;stroke-width:2;stroke-miterlimit:10;stroke-dasharray:12;}
	.st8{display:inline;fill:none;stroke:#00BDFF;stroke-width:2;stroke-miterlimit:10;}
	.st9{display:inline;fill:none;stroke:#00BDFF;stroke-miterlimit:10;stroke-dasharray:12;}
	.st10{display:inline;fill:none;stroke:#00BDFF;stroke-miterlimit:10;}
</style>
<g id="LOGO">
	<rect class="st0" width="2000" height="2000"/>
	<g>
		<path class="st1" d="M549.4,1085v-98.1c0-5-0.4-9.9-1.3-14.4c-0.9-4.6-2.2-8.6-4.1-12.1c-1.9-3.5-4.6-6.2-8.1-8.3
			c-3.5-2-7.9-3.1-13.1-3.1c-5.3,0-9.9,1-13.9,3.1c-4,2-7.3,4.9-9.9,8.5s-4.6,7.7-5.9,12.4s-2,9.6-2,14.6v97.4h-59.4V905.4H489v24.9
			h0.7c2.2-3.8,5-7.6,8.5-11.4c3.5-3.7,7.6-6.9,12.2-9.6c4.7-2.6,9.8-4.8,15.3-6.5s11.4-2.5,17.6-2.5c12,0,22.2,2.2,30.6,6.5
			c8.4,4.3,15.2,9.9,20.4,16.8c5.2,6.8,8.9,14.7,11.2,23.6c2.3,8.9,3.4,17.8,3.4,26.7V1085H549.4z"/>
		<path class="st1" d="M708.6,848.1c0,4.6-0.9,8.8-2.7,12.8s-4.2,7.4-7.2,10.3c-3,2.9-6.6,5.2-10.8,6.8c-4.2,1.7-8.6,2.5-13.1,2.5
			c-9.6,0-17.6-3.2-24.1-9.6c-6.5-6.4-9.7-14-9.7-22.9c0-4.3,0.8-8.5,2.5-12.4c1.7-4,4.1-7.4,7.2-10.3c3.1-2.9,6.7-5.2,10.8-7
			s8.5-2.7,13.3-2.7c4.6,0,8.9,0.8,13.1,2.5c4.2,1.7,7.8,4,10.8,6.9s5.4,6.3,7.2,10.3C707.8,839.3,708.6,843.5,708.6,848.1
			 M645.3,905.4h59.1V1085h-59.1V905.4z"/>
		<path class="st1" d="M859.9,1085v-98.1c0-5-0.4-9.9-1.3-14.4c-0.8-4.6-2.2-8.6-4.1-12.1c-1.9-3.5-4.6-6.2-8.1-8.3
			c-3.5-2-7.9-3.1-13.1-3.1c-5.3,0-9.9,1-13.9,3.1c-4,2-7.3,4.9-9.9,8.5c-2.6,3.6-4.6,7.7-5.9,12.4c-1.3,4.7-2,9.6-2,14.6v97.4
			h-59.4V905.4h57.3v24.9h0.7c2.2-3.8,5-7.6,8.5-11.4c3.5-3.7,7.6-6.9,12.2-9.6c4.7-2.6,9.8-4.8,15.3-6.5s11.4-2.5,17.7-2.5
			c12,0,22.2,2.2,30.6,6.5c8.4,4.3,15.2,9.9,20.4,16.8c5.2,6.8,8.9,14.7,11.2,23.6c2.3,8.9,3.4,17.8,3.4,26.7V1085H859.9z"/>
		<path class="st1" d="M1015.9,1089.7c0,11.1-1,21.6-3.1,31.6c-2,10-5.7,18.7-11,26.1s-12.6,13.3-22,17.7
			c-9.4,4.3-21.3,6.5-35.7,6.5c-4.1,0-8.5-0.2-13.3-0.7s-8.9-1.2-12.3-2.2l4-49.4c2.2,0.7,4.4,1.2,6.7,1.4c2.3,0.2,4.3,0.4,5.9,0.4
			c8.6,0,14.4-2.9,17.3-8.8c2.9-5.9,4.3-13.4,4.3-22.5V905.4h59.1L1015.9,1089.7L1015.9,1089.7z M1020.2,848.1
			c0,4.6-0.9,8.8-2.7,12.8s-4.2,7.4-7.2,10.3c-3,2.9-6.6,5.2-10.8,6.8c-4.2,1.7-8.6,2.5-13.1,2.5c-9.6,0-17.7-3.2-24.1-9.6
			c-6.5-6.4-9.7-14-9.7-22.9c0-4.3,0.9-8.5,2.5-12.4c1.7-4,4.1-7.4,7.2-10.3c3.1-2.9,6.7-5.2,10.8-7s8.5-2.7,13.3-2.7
			c4.6,0,8.9,0.8,13.1,2.5c4.2,1.7,7.8,4,10.8,6.8c3,2.9,5.4,6.3,7.2,10.3C1019.3,839.3,1020.2,843.5,1020.2,848.1"/>
		<path class="st1" d="M1051.2,929.9c10.6-10.1,22.9-17.7,36.9-22.7s28.4-7.6,43-7.6c15.1,0,27.9,1.9,38.4,5.6
			c10.4,3.7,18.9,9.5,25.4,17.3s11.2,17.7,14.2,29.6c3,11.9,4.5,26,4.5,42.4v90.5h-54v-19.1h-1.1c-4.6,7.4-11.5,13.2-20.7,17.3
			c-9.2,4.1-19.3,6.1-30.1,6.1c-7.2,0-14.6-1-22.3-2.9c-7.7-1.9-14.7-5.1-21.1-9.4s-11.6-10.1-15.7-17.3c-4.1-7.2-6.1-16.1-6.1-26.7
			c0-13,3.5-23.4,10.6-31.4c7.1-7.9,16.2-14.1,27.4-18.4c11.2-4.3,23.6-7.2,37.3-8.7c13.7-1.4,27-2.2,40-2.2v-2.9
			c0-8.9-3.1-15.4-9.4-19.7c-6.2-4.2-13.9-6.3-23.1-6.3c-8.4,0-16.5,1.8-24.3,5.4c-7.8,3.6-14.5,7.9-20,13L1051.2,929.9z
			 M1159.6,1006.8h-7.6c-6.5,0-13,0.3-19.6,0.9c-6.6,0.6-12.5,1.7-17.7,3.4s-9.4,4.1-12.8,7.4c-3.4,3.2-5,7.5-5,12.8
			c0,3.4,0.8,6.3,2.3,8.7c1.6,2.4,3.5,4.3,5.9,5.8c2.4,1.4,5.2,2.5,8.3,3.1c3.1,0.6,6.1,0.9,9,0.9c12,0,21.2-3.3,27.5-9.9
			c6.4-6.6,9.6-15.6,9.6-26.9L1159.6,1006.8L1159.6,1006.8z"/>
		<polygon class="st2" points="1372.9,1085.8 1308.7,1085.8 1237.6,904.9 1303.2,904.9 1341.3,1022.2 1342.4,1022.2 1380.5,904.9 
			1444,904.9 		"/>
		<path class="st2" d="M1455.3,929.6c10.6-10.2,23-17.8,37.2-22.9c14.1-5.1,28.6-7.6,43.4-7.6c15.2,0,28.1,1.9,38.6,5.6
			c10.5,3.7,19.1,9.6,25.6,17.4c6.6,7.9,11.3,17.8,14.4,29.8c3,12,4.5,26.2,4.5,42.7v91.2h-54.4v-19.3h-1.1
			c-4.6,7.5-11.5,13.3-20.9,17.5c-9.3,4.1-19.4,6.2-30.3,6.2c-7.3,0-14.8-1-22.5-2.9s-14.8-5.1-21.2-9.4
			c-6.4-4.3-11.7-10.2-15.8-17.4c-4.1-7.3-6.2-16.2-6.2-26.9c0-13.1,3.6-23.6,10.7-31.6s16.3-14.2,27.6-18.5
			c11.2-4.4,23.8-7.3,37.6-8.7c13.8-1.5,27.2-2.2,40.3-2.2v-2.9c0-8.9-3.1-15.5-9.4-19.8c-6.3-4.2-14-6.3-23.2-6.3
			c-8.5,0-16.6,1.8-24.5,5.4c-7.9,3.6-14.6,8-20.1,13.1L1455.3,929.6z M1564.5,1007h-7.6c-6.5,0-13.1,0.3-19.8,0.9
			c-6.7,0.6-12.6,1.8-17.8,3.5c-5.2,1.7-9.5,4.2-12.9,7.5s-5.1,7.6-5.1,12.9c0,3.4,0.8,6.3,2.4,8.7c1.6,2.4,3.6,4.4,6,5.8
			c2.4,1.5,5.2,2.5,8.3,3.1c3.1,0.6,6.1,0.9,9.1,0.9c12.1,0,21.3-3.3,27.7-10c6.4-6.7,9.6-15.7,9.6-27.1v-6.2H1564.5z"/>
		<path class="st2" d="M1772.8,1085.8V987c0-5.1-0.4-9.9-1.3-14.5c-0.8-4.6-2.2-8.6-4.2-12.2c-1.9-3.5-4.7-6.3-8.2-8.4
			c-3.5-2-7.9-3.1-13.2-3.1c-5.3,0-10,1-14,3.1s-7.3,4.9-10,8.6c-2.7,3.6-4.7,7.8-6,12.5s-2,9.6-2,14.7v98.1H1654V904.9h57.7V930
			h0.7c2.2-3.9,5-7.7,8.5-11.4s7.6-7,12.3-9.6c4.7-2.7,9.9-4.8,15.4-6.5c5.6-1.7,11.5-2.6,17.8-2.6c12.1,0,22.4,2.2,30.8,6.5
			c8.4,4.4,15.3,10,20.5,16.9s8.9,14.8,11.3,23.8c2.3,9,3.4,17.9,3.4,26.9v111.9L1772.8,1085.8L1772.8,1085.8z"/>
		<g>
			<polygon class="st2" points="353.6,1181.6 281.8,1222.9 209.6,1181.6 208.6,1181 208.6,1107.1 281.4,1065.5 353.6,1107.1 			"/>
			<polygon class="st1" points="230.2,1111.6 281.1,1141.1 332.1,1111.6 281.1,1081.6 			"/>
			<polygon class="st1" points="223,1123.7 222.4,1172.4 273.8,1202.3 273.8,1153.3 			"/>
		</g>
		<g>
			<path class="st1" d="M280.2,778.3c-66.2,0-110.7,44-110.7,109.5c0,44.8,23.9,83.3,49.1,124c21.4,34.5,43.5,70.1,53.8,113l1.6,6.5
				h13.5l1.9-6c16.4-53.1,38.2-87.9,57.4-118.6c23.6-37.7,44-70.2,44-121.4C390.9,824.3,343.3,778.3,280.2,778.3"/>
			<path class="st3" d="M382.3,886.3c0,88.9-64.1,117.8-101.1,237.4h-0.5c-23-95.7-102.7-156.2-102.7-235
				c0-56.5,37-100.9,102.1-100.9C339.4,787.8,382.3,829.9,382.3,886.3"/>
			<path class="st1" d="M365.3,891.4c0,46.3-37.5,83.9-83.8,83.9s-83.8-37.5-83.8-83.9c0-46.3,37.5-83.9,83.8-83.9
				S365.3,845.1,365.3,891.4"/>
			<path class="st2" d="M356,890.7c0,41.1-33.3,74.5-74.4,74.5s-74.4-33.4-74.4-74.5s33.3-74.5,74.4-74.5S356,849.6,356,890.7"/>
			<path class="st1" d="M318.9,910.7h-74.8c-13.9,0-25.3-11.4-25.3-25.3c0-13.9,11.4-25.3,25.3-25.3h74.8
				c13.9,0,25.3,11.4,25.3,25.3C344.2,899.3,332.8,910.7,318.9,910.7"/>
			<path class="st2" d="M263.6,885.7c0,8.1-6.5,14.6-14.6,14.6s-14.6-6.5-14.6-14.6s6.6-14.6,14.6-14.6
				C257.1,871,263.6,877.6,263.6,885.7"/>
			<path class="st1" d="M255.1,879c0,3-2.4,5.5-5.5,5.5c-3,0-5.5-2.4-5.5-5.5c0-3,2.4-5.5,5.5-5.5C252.6,873.6,255.1,876,255.1,879"
				/>
			<path class="st2" d="M327,885.3c0,8.1-6.5,14.6-14.6,14.6s-14.6-6.6-14.6-14.6c0-8.1,6.6-14.6,14.6-14.6S327,877.2,327,885.3"/>
			<path class="st1" d="M318.4,878.7c0,3-2.4,5.5-5.5,5.5c-3,0-5.5-2.4-5.5-5.5c0-3,2.5-5.5,5.5-5.5
				C316,873.2,318.4,875.7,318.4,878.7"/>
		</g>
	</g>
</g>
<g id="GUIDES" class="st4">
	<line class="st5" x1="2000" y1="777.3" x2="0" y2="777.3"/>
	<line class="st5" x1="2000" y1="1222.8" x2="0" y2="1222.8"/>
	<line class="st5" x1="169.4" y1="614.3" x2="169.4" y2="1390.4"/>
	<line class="st5" x1="1832.6" y1="614.3" x2="1832.6" y2="1390.4"/>
	<path class="st6" d="M167.7,1000.1c0,46.3-37.5,83.9-83.9,83.9c-46.3,0-83.9-37.5-83.9-83.9c0-46.3,37.6-83.9,83.9-83.9
		C130.2,916.3,167.7,953.8,167.7,1000.1"/>
	<path class="st6" d="M1083.7,1306.6c0,46.3-37.5,83.8-83.8,83.8s-83.8-37.5-83.8-83.8s37.5-83.8,83.8-83.8
		C1046.2,1222.8,1083.7,1260.3,1083.7,1306.6"/>
	<path class="st6" d="M1083.9,693.4c0,46.3-37.5,83.9-83.9,83.9c-46.3,0-83.9-37.5-83.9-83.9c0-46.3,37.6-83.9,83.9-83.9
		C1046.3,609.6,1083.9,647.1,1083.9,693.4"/>
	<path class="st6" d="M2000.4,1000.1c0,46.3-37.5,83.9-83.9,83.9c-46.3,0-83.9-37.5-83.9-83.9c0-46.3,37.6-83.9,83.9-83.9
		C1962.8,916.3,2000.4,953.8,2000.4,1000.1"/>
	<line class="st7" x1="500.1" y1="-819.8" x2="0.2" y2="-819.8"/>
	<line class="st7" x1="500.1" y1="-708.5" x2="0.2" y2="-708.5"/>
	<line class="st7" x1="42.5" y1="-860.6" x2="42.5" y2="-666.6"/>
	<line class="st7" x1="458.3" y1="-860.6" x2="458.3" y2="-666.6"/>
	<path class="st8" d="M42.1-764.1c0,11.6-9.4,21-21,21s-21-9.4-21-21s9.4-21,21-21S42.1-775.7,42.1-764.1"/>
	<path class="st8" d="M271.1-687.5c0,11.6-9.4,20.9-20.9,20.9c-11.6,0-20.9-9.4-20.9-20.9c0-11.6,9.4-20.9,20.9-20.9
		C261.7-708.5,271.1-699.1,271.1-687.5"/>
	<path class="st8" d="M271.1-840.8c0,11.6-9.4,21-21,21s-21-9.4-21-21s9.4-21,21-21C261.7-861.7,271.1-852.4,271.1-840.8"/>
	<path class="st8" d="M500.2-764.1c0,11.6-9.4,21-21,21s-21-9.4-21-21s9.4-21,21-21C490.8-785.1,500.2-775.7,500.2-764.1"/>
	<line class="st5" x1="1000" y1="-482.6" x2="0.2" y2="-482.6"/>
	<line class="st5" x1="1000" y1="-260" x2="0.2" y2="-260"/>
	<line class="st5" x1="84.9" y1="-564.2" x2="84.9" y2="-176.1"/>
	<line class="st5" x1="916.3" y1="-564.2" x2="916.3" y2="-176.1"/>
	<path class="st6" d="M84-371.2c0,23.2-18.8,41.9-41.9,41.9c-23.2,0-41.9-18.8-41.9-41.9c0-23.2,18.8-41.9,41.9-41.9
		C65.3-413.2,84-394.4,84-371.2"/>
	<path class="st6" d="M542-218.1c0,23.1-18.8,41.9-41.9,41.9s-41.9-18.8-41.9-41.9S477-260,500.1-260S542-241.2,542-218.1"/>
	<path class="st6" d="M542-524.6c0,23.2-18.8,41.9-41.9,41.9c-23.2,0-41.9-18.8-41.9-41.9c0-23.2,18.8-41.9,41.9-41.9
		C523.3-566.5,542-547.7,542-524.6"/>
	<path class="st6" d="M1000.2-371.2c0,23.2-18.8,41.9-41.9,41.9c-23.2,0-41.9-18.8-41.9-41.9c0-23.2,18.8-41.9,41.9-41.9
		C981.4-413.2,1000.2-394.4,1000.2-371.2"/>
	<line class="st5" x1="1499.9" y1="49.8" x2="0.2" y2="49.8"/>
	<line class="st5" x1="1499.9" y1="383.8" x2="0.2" y2="383.8"/>
	<line class="st5" x1="127.2" y1="-72.5" x2="127.2" y2="509.5"/>
	<line class="st5" x1="1374.4" y1="-72.5" x2="1374.4" y2="509.5"/>
	<path class="st6" d="M126,216.8c0,34.7-28.2,62.9-62.9,62.9S0.2,251.5,0.2,216.8s28.2-62.9,62.9-62.9
		C97.8,153.9,126,182.1,126,216.8"/>
	<path class="st6" d="M812.8,446.6c0,34.7-28.1,62.8-62.8,62.8s-62.8-28.1-62.8-62.8s28.1-62.8,62.8-62.8
		C784.7,383.8,812.8,411.9,812.8,446.6"/>
	<path class="st6" d="M812.9-13.1c0,34.7-28.2,62.9-62.9,62.9s-62.9-28.2-62.9-62.9S715.3-76,750-76C784.8-76,812.9-47.9,812.9-13.1
		"/>
	<path class="st6" d="M1500.2,216.8c0,34.7-28.2,62.9-62.9,62.9c-34.7,0-62.9-28.2-62.9-62.9s28.2-62.9,62.9-62.9
		C1472,153.9,1500.2,182.1,1500.2,216.8"/>
	<line class="st9" x1="250.1" y1="-1038.4" x2="0.2" y2="-1038.4"/>
	<line class="st9" x1="250.1" y1="-982.7" x2="0.2" y2="-982.7"/>
	<line class="st9" x1="21.4" y1="-1058.8" x2="21.4" y2="-961.8"/>
	<line class="st9" x1="229.2" y1="-1058.8" x2="229.2" y2="-961.8"/>
	<path class="st10" d="M21.2-1010.5c0,5.8-4.7,10.5-10.5,10.5s-10.5-4.7-10.5-10.5s4.7-10.5,10.5-10.5S21.2-1016.3,21.2-1010.5"/>
	<path class="st10" d="M135.6-972.2c0,5.8-4.7,10.5-10.5,10.5s-10.5-4.7-10.5-10.5s4.7-10.5,10.5-10.5
		C130.9-982.7,135.6-978,135.6-972.2"/>
	<path class="st10" d="M135.7-1048.9c0,5.8-4.7,10.5-10.5,10.5s-10.5-4.7-10.5-10.5s4.7-10.5,10.5-10.5S135.7-1054.7,135.7-1048.9"
		/>
	<path class="st10" d="M250.2-1010.5c0,5.8-4.7,10.5-10.5,10.5s-10.5-4.7-10.5-10.5s4.7-10.5,10.5-10.5S250.2-1016.3,250.2-1010.5"
		/>
</g>
</svg>
