<svg width="1024" height="1024" viewBox="0 0 1024 1024" fill="none" xmlns="http://www.w3.org/2000/svg">
<path d="M512 929.47C742.562 929.47 929.47 742.562 929.47 512C929.47 281.438 742.562 94.5302 512 94.5302C281.438 94.5302 94.5301 281.438 94.5301 512C94.5301 742.562 281.438 929.47 512 929.47Z" fill="white"/>
<path d="M917.36 516.045C916.634 582.092 900.736 644.709 873.058 700.462L162.37 302.806C236.337 185.476 365.483 106.662 511.624 105.035C738.229 102.512 919.883 286.527 917.36 516.045Z" fill="#F05252"/>
<path fill-rule="evenodd" clip-rule="evenodd" d="M962 512C962 760.528 760.528 962 512 962C263.472 962 62 760.528 62 512C62 263.472 263.472 62 512 62C760.528 62 962 263.472 962 512ZM869.918 688.624C896.242 635.38 911.036 575.417 911.036 512C911.036 291.618 732.382 112.964 512 112.964C369.872 112.964 245.1 187.269 174.41 299.152L869.918 688.624ZM848.604 726.4C777.745 837.417 653.47 911.036 512 911.036C291.618 911.036 112.964 732.382 112.964 512C112.964 449.236 127.454 389.857 153.272 337.025L848.604 726.4Z" fill="#252F3F"/>
<path d="M289.711 251.759V869.831H329.922V682.3H772.241V635.694L666.488 492.061L772.241 348.428V301.822H329.922V251.759H289.711ZM727.203 341.872L616.624 492.061L727.203 642.25H329.922V341.872H727.203Z" fill="#252F3F"/>
<path d="M727.204 341.872L616.624 492.061L727.204 642.25H329.922V341.872H727.204Z" fill="white"/>
<path d="M509.026 409.727C509.546 409.875 510.031 410.123 510.454 410.457C510.877 410.792 511.23 411.205 511.491 411.674C511.752 412.143 511.916 412.659 511.975 413.191C512.035 413.724 511.987 414.262 511.835 414.776L465.071 574.119C464.921 574.633 464.67 575.113 464.332 575.531C463.995 575.949 463.577 576.298 463.103 576.556C462.629 576.814 462.108 576.977 461.571 577.036C461.033 577.094 460.489 577.047 459.969 576.898L439.071 570.899C438.551 570.751 438.065 570.503 437.642 570.169C437.219 569.835 436.867 569.421 436.606 568.952C436.345 568.483 436.18 567.967 436.121 567.435C436.062 566.903 436.11 566.364 436.262 565.85L483.026 406.508C483.176 405.993 483.427 405.513 483.764 405.095C484.102 404.677 484.519 404.329 484.993 404.071C485.467 403.812 485.988 403.649 486.526 403.591C487.064 403.532 487.608 403.579 488.127 403.729L509.026 409.727Z" fill="#252F3F"/>
<path d="M586.63 484.551L538.659 437.231C537.883 436.472 536.855 436.065 535.796 436.098C534.737 436.131 533.732 436.601 533 437.406L518.52 453.66C518.155 454.07 517.871 454.553 517.686 455.08C517.502 455.607 517.419 456.168 517.444 456.73C517.47 457.291 517.602 457.841 517.833 458.348C518.064 458.855 518.389 459.308 518.79 459.68L548.938 487.61L518.783 515.505C518.379 515.874 518.051 516.326 517.818 516.833C517.584 517.34 517.451 517.891 517.426 518.454C517.401 519.016 517.484 519.578 517.671 520.106C517.858 520.634 518.145 521.116 518.514 521.524L532.994 537.764C533.351 538.17 533.782 538.497 534.26 538.728C534.739 538.958 535.256 539.086 535.782 539.106C536.307 539.125 536.832 539.035 537.324 538.841C537.817 538.647 538.268 538.352 538.652 537.974L586.623 490.69C587.026 490.299 587.348 489.824 587.569 489.297C587.789 488.769 587.903 488.198 587.904 487.622C587.904 487.045 587.791 486.475 587.572 485.946C587.353 485.418 587.032 484.942 586.63 484.551Z" fill="#252F3F"/>
<path d="M415.097 437.422L429.579 453.668C429.949 454.077 430.237 454.561 430.425 455.091C430.613 455.62 430.696 456.184 430.67 456.749C430.644 457.313 430.51 457.866 430.275 458.374C430.04 458.882 429.709 459.335 429.302 459.705L399.141 487.61L429.309 515.502C429.71 515.874 430.035 516.327 430.266 516.834C430.497 517.341 430.629 517.892 430.655 518.453C430.68 519.015 430.598 519.576 430.413 520.104C430.228 520.631 429.944 521.114 429.579 521.524L415.097 537.771C414.739 538.177 414.308 538.505 413.828 538.734C413.348 538.964 412.829 539.09 412.303 539.107C411.776 539.123 411.251 539.029 410.759 538.829C410.267 538.63 409.818 538.33 409.438 537.946L361.463 490.643C361.062 490.251 360.743 489.777 360.524 489.25C360.306 488.723 360.193 488.154 360.193 487.579C360.193 487.004 360.306 486.435 360.524 485.908C360.743 485.381 361.062 484.907 361.463 484.515L409.438 437.247C409.82 436.867 410.27 436.569 410.761 436.372C411.253 436.175 411.776 436.082 412.302 436.098C412.828 436.114 413.346 436.24 413.825 436.467C414.305 436.694 414.737 437.019 415.097 437.422Z" fill="#252F3F"/>
</svg>
